<?xml version="1.0" standalone="no"?><!DOCTYPE svg PUBLIC "-//W3C//DTD SVG 1.1//EN" "http://www.w3.org/Graphics/SVG/1.1/DTD/svg11.dtd"><svg t="1531731640327" class="icon" style="" viewBox="0 0 1024 1024" version="1.1" xmlns="http://www.w3.org/2000/svg" p-id="5852" xmlns:xlink="http://www.w3.org/1999/xlink" width="52" height="52"><defs><style type="text/css"></style></defs><path d="M512 512m-512 0a512 512 0 1 0 1024 0 512 512 0 1 0-1024 0Z" fill="#FDEBED" p-id="5853"></path><path d="M665.6 742.4H358.4c-28.16 0-51.2-23.04-51.2-51.2V332.8c0-28.16 23.04-51.2 51.2-51.2h307.2c28.16 0 51.2 23.04 51.2 51.2v358.4c0 28.16-23.04 51.2-51.2 51.2zM371.2 512h115.2c7.68 0 12.8-5.12 12.8-12.8s-5.12-12.8-12.8-12.8h-115.2c-7.68 0-12.8 5.12-12.8 12.8s5.12 12.8 12.8 12.8z m192-115.2H371.2c-7.68 0-12.8 5.12-12.8 12.8s5.12 12.8 12.8 12.8h192c7.68 0 12.8-5.12 12.8-12.8s-5.12-12.8-12.8-12.8z" fill="#EC3A4E" p-id="5854"></path></svg>