<?xml version="1.0" standalone="no"?><!DOCTYPE svg PUBLIC "-//W3C//DTD SVG 1.1//EN" "http://www.w3.org/Graphics/SVG/1.1/DTD/svg11.dtd"><svg t="1531731735355" class="icon" style="" viewBox="0 0 1031 1024" version="1.1" xmlns="http://www.w3.org/2000/svg" p-id="10998" xmlns:xlink="http://www.w3.org/1999/xlink" width="52.35546875" height="52"><defs><style type="text/css"></style></defs><path d="M449.129121 208.72988h-33.252829c0-66.865537 9.572784-114.729458 57.580656-146.90265l18.569762 27.566739C460.285373 110.770788 449.129121 142.008294 449.129121 208.72988z" fill="#DE4165" p-id="10999"></path><path d="M562.706966 110.338933c-71.975821 0-145.823013-44.912912-177.348422-91.769171L413.069235 0c25.407465 37.787306 97.383285 85.219372 166.983903 75.934491l4.390525 32.964926a163.457089 163.457089 0 0 1-21.736697 1.439516zM432.502706 259.112954c-39.802629 0-66.505658-26.703029-66.505658-66.505658h33.252829c0 21.592746 11.804035 33.252829 33.252829 33.252829s33.252829-11.804035 33.252829-33.252829h33.252829c0 39.44275-26.703029 66.505658-66.505658 66.505658zM632.091657 1024A399.681732 399.681732 0 0 1 232.913756 624.750123v-16.626415h798.427778v16.626415a399.681732 399.681732 0 0 1-399.249877 399.249877zM266.310536 641.376538a365.925072 365.925072 0 0 0 731.130386 0z" fill="#DE4165" p-id="11000"></path><path d="M415.876292 957.278414a415.876292 415.876292 0 1 1 415.876291-415.876291c0 69.888522-17.921979 91.337316-21.592746 94.936107l-23.536093-23.536093s11.804035-16.554439 11.804034-71.400014a382.623462 382.623462 0 1 0-382.551486 382.767414z" fill="#DE4165" p-id="11001"></path><path d="M16.626415 524.91966H149.709707v33.252829H16.626415z" fill="#DE4165" p-id="11002"></path><path d="M134.328474 535.392142l33.252829-83.211247 30.877627 12.336656-33.252829 83.211246z" fill="#DE4165" p-id="11003"></path><path d="M182.962536 441.787587h66.505658V475.040416h-66.505658z" fill="#DE4165" p-id="11004"></path><path d="M166.336121 375.209953h33.25283v83.204049h-33.25283zM69.355901 434.330892l27.667505-18.440205 33.260027 49.879243-27.667506 18.447403zM137.977648 553.299726l23.507303-23.507303 49.929627 49.922429-23.514501 23.514501zM415.876292 574.870879H287.399452l-20.369157-61.323399 31.525409-10.50847 12.883672 38.507064h104.436916v33.324805zM69.888522 747.900752l49.915231-66.577634 26.609461 19.951697-49.915231 66.570437z" fill="#DE4165" p-id="11005"></path><path d="M68.88086 616.688831l28.51682-17.101455 49.915232 83.204049-28.51682 17.101455z" fill="#DE4165" p-id="11006"></path><path d="M133.083292 674.629367h66.505659v33.252829h-66.505659zM167.221424 819.070444l16.655205-49.908034 31.539805 10.522864-16.648008 49.908034z" fill="#DE4165" p-id="11007"></path><path d="M133.083292 807.712659h116.456878v33.252829H133.083292zM710.826007 486.844451l5.319013-32.914543 100.190342 16.19456-5.32621 32.914542z" fill="#DE4165" p-id="11008"></path><path d="M668.165938 515.677964l33.252829-49.879243 27.674703 18.440205-33.252829 49.879244z" fill="#DE4165" p-id="11009"></path><path d="M610.160624 457.528699l10.50847-31.547002 99.830463 33.267224-10.50847 31.547002zM674.542996 343.662951l66.563239-33.288817 14.870204 29.740409-66.563239 33.288817zM615.465242 724.580586h33.252829v33.252829h-33.252829zM537.177142 729.467744l33.288817-33.288817 23.514501 23.514501-33.288817 33.288817zM670.296422 719.664638l23.507303-23.514501 33.288817 33.28162-23.5145 23.5145zM515.634779 658.002952h33.252829v33.252829h-33.252829zM715.295705 658.002952H748.548534v33.252829h-33.252829z" fill="#DE4165" p-id="11010"></path><path d="M632.091657 807.712659A183.178463 183.178463 0 0 1 449.129121 624.750123H482.237998a149.709707 149.709707 0 1 0 299.419414 0h33.252829a183.178463 183.178463 0 0 1-182.818584 182.962536z" fill="#DE4165" p-id="11011"></path></svg>