<?xml version="1.0" standalone="no"?><!DOCTYPE svg PUBLIC "-//W3C//DTD SVG 1.1//EN" "http://www.w3.org/Graphics/SVG/1.1/DTD/svg11.dtd"><svg t="1531731532305" class="icon" style="" viewBox="0 0 1024 1024" version="1.1" xmlns="http://www.w3.org/2000/svg" p-id="3500" data-spm-anchor-id="a313x.7781069.0.i18" xmlns:xlink="http://www.w3.org/1999/xlink" width="52" height="52"><defs><style type="text/css"></style></defs><path d="M297.897226 881.764532c-96.191806 0-233.555313-241.96689-233.555313-369.809557 0-133.048225 104.83465-233.555313 233.555313-233.555313 128.732943 0 233.567593 100.507088 233.567593 233.555313C531.464819 639.797641 394.101311 881.764532 297.897226 881.764532zM297.897226 317.323159c-110.329804 0-194.624652 80.606853-194.624652 194.631816 0 116.307959 123.573433 330.879919 194.624652 330.879919 71.075779 0 194.637955-214.572984 194.637955-330.879919C492.535181 397.930011 408.23931 317.323159 297.897226 317.323159zM784.572444 472.850351c-58.481949 0.180102-175.260629-145.089469-175.260629-233.375212 0-90.731444 78.639035-175.172625 175.167508-175.172625s175.177741 84.441181 175.177741 175.172625C959.657065 327.761905 842.880431 473.030453 784.572444 472.850351zM784.479323 103.227036c-76.210729 0-136.237871 64.639183-136.237871 136.248104 0 58.388828 92.242867 194.631816 136.237871 194.631816 44.00626 0 136.248104-136.242987 136.248104-194.631816C920.727427 167.866219 860.689029 103.227036 784.479323 103.227036zM784.572444 317.561589c-42.985 0-77.94114-35.003212-77.94114-77.969792 0-42.983977 34.95614-77.958536 77.94114-77.958536 42.971697 0 77.92886 34.974559 77.92886 77.958536C862.501304 282.558377 827.544141 317.561589 784.572444 317.561589zM784.327874 200.545502c-21.48022 0-38.95215 17.512862-38.95215 39.022759 0 21.527292 17.47193 39.051411 38.95215 39.051411 21.481244 0 38.953174-17.524119 38.953174-39.051411C823.281047 218.059388 805.809117 200.545502 784.327874 200.545502zM628.783285 959.612551c-106.995873 0-232.858442-33.633005-253.025761-38.930661l19.469424-38.917358c76.953649 20.260439 288.494577 67.717288 350.33297 19.459191 10.431583-8.167007 19.470447-25.499767 19.470447-38.929638 0-60.22464-58.807361-75.746148-97.329722-97.319489-35.734876-19.96982-77.848019-58.388828-58.389852-116.765377 36.617989-109.894899 175.167508-136.254244 175.167508-136.254244l0 38.929638c0 0-106.147552 25.569352-136.237871 116.771517-11.489682 34.828226 18.784832 55.669904 58.389852 77.859275 38.95215 21.794375 97.319489 36.443004 97.319489 116.777657 0 23.861454-20.342304 63.33856-38.918381 77.859275C736.894561 962.086905 680.689469 959.612551 628.783285 959.612551zM207.364303 384.442836l0 251.79984 205.161636-121.233132L207.364303 384.442836zM244.666884 449.726701l102.58133 65.283866-102.58133 55.955406L244.666884 449.726701z" p-id="3501" fill="#13C2C2" data-spm-anchor-id="a313x.7781069.0.i17" class="selected"></path></svg>